<svg xmlns="http://www.w3.org/2000/svg" width="14.747" height="17" viewBox="0 0 14.747 17">
  <g id="Group_38299" data-name="Group 38299" transform="translate(-3 -1.25)">
    <path id="Path_90794" data-name="Path 90794" d="M14.272,3.144V1.865a.614.614,0,1,0-1.229,0v1.23H7.718V1.865a.614.614,0,1,0-1.229,0V3.144A3.481,3.481,0,0,0,3.04,6.629a.412.412,0,0,0,.41.435H17.312a.407.407,0,0,0,.41-.435A3.481,3.481,0,0,0,14.272,3.144Z" transform="translate(-0.007 0)"/>
    <path id="Path_90795" data-name="Path 90795" d="M16.928,9.84H3.819A.822.822,0,0,0,3,10.66v5.051c0,2.46,1.229,4.1,4.1,4.1h6.554c2.867,0,4.1-1.64,4.1-4.1V10.66A.822.822,0,0,0,16.928,9.84ZM8.088,16.7a1.291,1.291,0,0,1-.123.1.62.62,0,0,1-.147.074.52.52,0,0,1-.147.049,1.11,1.11,0,0,1-.164.016.815.815,0,0,1-.311-.066.846.846,0,0,1-.27-.172.832.832,0,0,1,0-1.164.846.846,0,0,1,.27-.172.783.783,0,0,1,.475-.049.521.521,0,0,1,.147.049.62.62,0,0,1,.147.074l.123.1a.832.832,0,0,1,0,1.164Zm0-2.87a.823.823,0,0,1-1.163-1.164.818.818,0,0,1,.893-.172.765.765,0,0,1,.27.172.832.832,0,0,1,0,1.164Zm2.867,2.87a.832.832,0,1,1,.238-.582A.861.861,0,0,1,10.955,16.7Zm2.867,0a.832.832,0,1,1,.238-.582A.861.861,0,0,1,13.823,16.7Z" transform="translate(0 -1.56)"/>
  </g>
</svg>
