<svg xmlns="http://www.w3.org/2000/svg" xmlns:xlink="http://www.w3.org/1999/xlink" width="33.423" height="34" viewBox="0 0 33.423 34">
  <defs>
    <filter id="Union_8" x="0" y="0" width="33.423" height="34" filterUnits="userSpaceOnUse">
      <feOffset dy="2" input="SourceAlpha"/>
      <feGaussianBlur stdDeviation="3" result="blur"/>
      <feFlood flood-opacity="0.239"/>
      <feComposite operator="in" in2="blur"/>
      <feComposite in="SourceGraphic"/>
    </filter>
  </defs>
  <g id="Group_38668" data-name="Group 38668" transform="translate(7 5.748)">
    <g transform="matrix(1, 0, 0, 1, -7, -5.75)" filter="url(#Union_8)">
      <path id="Union_8-2" data-name="Union 8" d="M16301.677-1861.748c-3.087,0-3.856-.774-3.856-3.857v-1.543c0-2.575.541-3.537,2.506-3.779a9.576,9.576,0,0,1,1.158-.074h8.095a9.576,9.576,0,0,1,1.158.074c1.965.242,2.506,1.2,2.506,3.779v1.543c0,3.083-.774,3.857-3.856,3.857Zm6.392-5.175a.8.8,0,0,0-.226.549.8.8,0,0,0,.226.545.814.814,0,0,0,.548.225.8.8,0,0,0,.545-.225.8.8,0,0,0,.226-.545,1.113,1.113,0,0,0-.017-.156.483.483,0,0,0-.045-.139.4.4,0,0,0-.07-.131.9.9,0,0,0-.094-.123.759.759,0,0,0-.542-.215A.79.79,0,0,0,16308.068-1866.923Zm-3.083,0a.8.8,0,0,0-.226.549.781.781,0,0,0,.062.291.937.937,0,0,0,.164.254.79.79,0,0,0,.544.225.814.814,0,0,0,.549-.225.937.937,0,0,0,.164-.254.781.781,0,0,0,.062-.291.8.8,0,0,0-.226-.549.79.79,0,0,0-.551-.215A.758.758,0,0,0,16304.985-1866.923Zm-2.833-.164a.86.86,0,0,0-.254.164.841.841,0,0,0-.16.254.731.731,0,0,0-.062.295.8.8,0,0,0,.222.545.858.858,0,0,0,.254.164.823.823,0,0,0,.295.061.814.814,0,0,0,.548-.225.8.8,0,0,0,.222-.545.731.731,0,0,0-.062-.295.822.822,0,0,0-.16-.254.776.776,0,0,0-.547-.224A.75.75,0,0,0,16302.152-1867.087Zm7.427-3.914v-1.543c0-2.428-.688-4.049-4.05-4.049s-4.049,1.621-4.049,4.049V-1871a9.561,9.561,0,0,0-1.154.074v-1.617c0-2.235.54-5.2,5.2-5.2s5.208,2.968,5.208,5.2v1.617A9.576,9.576,0,0,0,16309.579-1871Z" transform="translate(-16288.82 1884.75)" fill="#353435"/>
    </g>
  </g>
</svg>
