<svg xmlns="http://www.w3.org/2000/svg" xmlns:xlink="http://www.w3.org/1999/xlink" width="33.489" height="35.864" viewBox="0 0 33.489 35.864">
  <defs>
    <filter id="Path_90806" x="0" y="2.366" width="33.489" height="33.498" filterUnits="userSpaceOnUse">
      <feOffset dy="2" input="SourceAlpha"/>
      <feGaussianBlur stdDeviation="3" result="blur"/>
      <feFlood flood-opacity="0.239"/>
      <feComposite operator="in" in2="blur"/>
      <feComposite in="SourceGraphic"/>
    </filter>
    <filter id="Path_90807" x="4.52" y="0" width="24.449" height="19.295" filterUnits="userSpaceOnUse">
      <feOffset dy="2" input="SourceAlpha"/>
      <feGaussianBlur stdDeviation="3" result="blur-2"/>
      <feFlood flood-opacity="0.239"/>
      <feComposite operator="in" in2="blur-2"/>
      <feComposite in="SourceGraphic"/>
    </filter>
  </defs>
  <g id="Group_38334" data-name="Group 38334" transform="translate(5.67 5)">
    <g transform="matrix(1, 0, 0, 1, -5.67, -5)" filter="url(#Path_90806)">
      <path id="Path_90806-2" data-name="Path 90806" d="M11.075,4.648A7.749,7.749,0,1,0,18.819,12.4,7.754,7.754,0,0,0,11.075,4.648Zm.67,7.459a.67.67,0,1,1-1.34,0V7.641a.67.67,0,0,1,1.34,0Z" transform="translate(5.67 4.72)" fill="#353435"/>
    </g>
    <g transform="matrix(1, 0, 0, 1, -5.67, -5)" filter="url(#Path_90807)">
      <path id="Path_90807-2" data-name="Path 90807" d="M14.2,3.3H9.034a.64.64,0,0,1-.643-.643A.648.648,0,0,1,9.034,2H14.2a.64.64,0,0,1,.643.643A.648.648,0,0,1,14.2,3.3Z" transform="translate(5.13 5)" fill="#353435"/>
    </g>
  </g>
</svg>
