<svg xmlns="http://www.w3.org/2000/svg" width="18.928" height="23.388" viewBox="0 0 18.928 23.388">
  <g id="icon-accessibility" transform="translate(-1447.333 -54.5)">
    <path id="Path_90778" data-name="Path 90778" d="M27.119,15.238A3.119,3.119,0,1,0,24,12.119a3.119,3.119,0,0,0,3.119,3.119Z" transform="translate(1429.64 46)" fill="#fff" stroke="#fff" stroke-width="1"/>
    <path id="Path_90779" data-name="Path 90779" d="M29,22h-.008l-5.458.49q-.279.025-.559.025h-2.43q-.279,0-.558-.025L14.52,22a1.56,1.56,0,1,0-.244,3.11l4.412.4a.52.52,0,0,1,.473.517v1.2a2.074,2.074,0,0,1-.143.76l-2.5,6.371a1.56,1.56,0,1,0,2.853,1.263l2.384-5.829,2.406,5.845a1.56,1.56,0,0,0,2.854-1.256l-2.515-6.4a2.078,2.078,0,0,1-.143-.758v-1.2a.52.52,0,0,1,.473-.517l4.4-.4A1.56,1.56,0,1,0,29,22Z" transform="translate(1435 40.759)" fill="#fff" stroke="#fff" stroke-width="1"/>
  </g>
</svg>
