<svg xmlns="http://www.w3.org/2000/svg" width="18" height="18" viewBox="0 0 18 18">
  <path id="Path_90791" data-name="Path 90791" d="M18.622,9.622H16.914a6.705,6.705,0,0,0-6.036-6.036V1.878a.628.628,0,1,0-1.256,0V3.586A6.705,6.705,0,0,0,3.586,9.622H1.878a.628.628,0,1,0,0,1.256H3.586a6.705,6.705,0,0,0,6.036,6.036v1.708a.628.628,0,0,0,1.256,0V16.914a6.705,6.705,0,0,0,6.036-6.036h1.708a.628.628,0,0,0,0-1.256Zm-8.372,3.24a2.612,2.612,0,1,1,2.612-2.612A2.615,2.615,0,0,1,10.25,12.862Z" transform="translate(-1.25 -1.25)"/>
</svg>
