<svg xmlns="http://www.w3.org/2000/svg" xmlns:xlink="http://www.w3.org/1999/xlink" width="37.544" height="35" viewBox="0 0 37.544 35">
  <defs>
    <filter id="Path_90746" x="0" y="2.882" width="34.611" height="23.189" filterUnits="userSpaceOnUse">
      <feOffset dy="2" input="SourceAlpha"/>
      <feGaussianBlur stdDeviation="3" result="blur"/>
      <feFlood flood-opacity="0.239"/>
      <feComposite operator="in" in2="blur"/>
      <feComposite in="SourceGraphic"/>
    </filter>
    <filter id="Path_90747" x="0" y="9.535" width="34.611" height="25.465" filterUnits="userSpaceOnUse">
      <feOffset dy="2" input="SourceAlpha"/>
      <feGaussianBlur stdDeviation="3" result="blur-2"/>
      <feFlood flood-opacity="0.239"/>
      <feComposite operator="in" in2="blur-2"/>
      <feComposite in="SourceGraphic"/>
    </filter>
    <filter id="Path_90748" x="3.156" y="0" width="34.388" height="30.773" filterUnits="userSpaceOnUse">
      <feOffset dy="2" input="SourceAlpha"/>
      <feGaussianBlur stdDeviation="3" result="blur-3"/>
      <feFlood flood-opacity="0.239"/>
      <feComposite operator="in" in2="blur-3"/>
      <feComposite in="SourceGraphic"/>
    </filter>
  </defs>
  <g id="Group_38667" data-name="Group 38667" transform="translate(7 3.398)">
    <g transform="matrix(1, 0, 0, 1, -7, -3.4)" filter="url(#Path_90746)">
      <path id="Path_90746-2" data-name="Path 90746" d="M14.918,6.551H5.694c-.274,0-.528.01-.762.02C2.616,6.707,2,7.557,2,10.2v.567a.98.98,0,0,0,.977.977H17.634a.98.98,0,0,0,.977-.977V10.2C18.611,7.284,17.869,6.551,14.918,6.551Z" transform="translate(7 3.33)" fill="#353435"/>
    </g>
    <g transform="matrix(1, 0, 0, 1, -7, -3.4)" filter="url(#Path_90747)">
      <path id="Path_90747-2" data-name="Path 90747" d="M2.977,13.359A.98.98,0,0,0,2,14.337V17.18c0,2.912.743,3.645,3.694,3.645h9.224c2.9,0,3.664-.7,3.694-3.488v-3a.98.98,0,0,0-.977-.977ZM6.847,18.44H5.176a.733.733,0,1,1,0-1.466H6.856a.733.733,0,1,1-.01,1.466Zm5.462,0H8.947a.733.733,0,1,1,0-1.466h3.361a.733.733,0,1,1,0,1.466Z" transform="translate(7 3.18)" fill="#353435"/>
    </g>
    <g transform="matrix(1, 0, 0, 1, -7, -3.4)" filter="url(#Path_90748)">
      <path id="Path_90748-2" data-name="Path 90748" d="M21.618,13.109V7.989c0-3.058-1.749-4.387-4.387-4.387H8.5a5.539,5.539,0,0,0-1.993.332,3.346,3.346,0,0,0-1.2.733.26.26,0,0,0,.215.44H16.146a3.974,3.974,0,0,1,3.977,3.977v7.006a.258.258,0,0,0,.44.205A4.461,4.461,0,0,0,21.618,13.109Z" transform="translate(6.93 3.4)" fill="#353435"/>
    </g>
  </g>
</svg>
