<svg id="Group_38665" data-name="Group 38665" xmlns="http://www.w3.org/2000/svg" width="14.266" height="15.423" viewBox="0 0 14.266 15.423">
  <path id="Path_90936" data-name="Path 90936" d="M3.328,21.25H16.438a.578.578,0,1,1,0,1.157H3.328a.578.578,0,0,1,0-1.157Z" transform="translate(-2.75 -6.984)" fill="#feb519"/>
  <path id="Path_90937" data-name="Path 90937" d="M15.622,11.826a.583.583,0,0,1-.578-.578V4.724L5.235,14.533a.577.577,0,0,1-.817,0,.582.582,0,0,1,0-.817l9.809-9.809H7.7a.578.578,0,0,1,0-1.157h7.92a.581.581,0,0,1,.224.046.551.551,0,0,1,.308.308.581.581,0,0,1,.046.224v7.92A.583.583,0,0,1,15.622,11.826Z" transform="translate(-3.091 -2.75)" fill="#fff"/>
</svg>
