<svg id="Group_38665" data-name="Group 38665" xmlns="http://www.w3.org/2000/svg" width="16.169" height="17.479" viewBox="0 0 16.169 17.479">
  <path id="Path_90936" data-name="Path 90936" d="M3.405,21.25H18.263a.655.655,0,1,1,0,1.311H3.405a.655.655,0,0,1,0-1.311Z" transform="translate(-2.75 -5.081)" fill="#feb519"/>
  <path id="Path_90937" data-name="Path 90937" d="M17.139,13.037a.66.66,0,0,1-.655-.655V4.987L5.367,16.1a.654.654,0,0,1-.926,0,.659.659,0,0,1,0-.926L15.557,4.061H8.163a.655.655,0,0,1,0-1.311h8.976a.658.658,0,0,1,.253.052.625.625,0,0,1,.35.35.658.658,0,0,1,.052.253v8.976A.66.66,0,0,1,17.139,13.037Z" transform="translate(-2.937 -2.75)" fill="#353435"/>
</svg>
