<svg xmlns="http://www.w3.org/2000/svg" width="19.542" height="19.879" viewBox="0 0 19.542 19.879">
  <g id="Group_38236" data-name="Group 38236" transform="translate(-310 -1128.789)">
    <rect id="Rectangle_20681" data-name="Rectangle 20681" width="15" height="17.65" transform="translate(312 1131)" fill="#fff"/>
    <path id="m-1" d="M9.739,3.259h.589a14.524,14.524,0,0,1,4.691.5c.915.347,1.039,2.052,1.015,2.62v.034c0,7.282-4.946,9.855-6.213,9.855a6.028,6.028,0,0,1-3.6-2.236,11.2,11.2,0,0,1-2.6-7.619v-.03c-.032-.571.085-2.276,1.016-2.623a14.355,14.355,0,0,1,4.673-.5h.43ZM4.451,19.879,6.545,16.9a5.252,5.252,0,0,0,3.251,1.7,5.147,5.147,0,0,0,3.271-1.7l2.085,2.974Zm12.181,0-2.669-4a14.542,14.542,0,0,0,2.722-8.925c.008-.41.055-3.28-1.741-4.079a12.464,12.464,0,0,0-4.7-.643h-.9a12.469,12.469,0,0,0-4.7.643c-1.8.8-1.758,3.669-1.745,4.079a14.276,14.276,0,0,0,2.61,8.774c.042.056.087.11.124.162L2.974,19.879H1.958A1.965,1.965,0,0,1,0,17.9V1.987A1.966,1.966,0,0,1,1.958,0H17.589a1.975,1.975,0,0,1,1.953,1.987V17.9a1.974,1.974,0,0,1-1.953,1.983ZM9.366,3.987a16.968,16.968,0,0,0-4.059.319c-.8.22-.905,1.289-.883,1.656v.016a6.09,6.09,0,0,0,2.263,4.8,5.79,5.79,0,0,0,3.118,1.4,6.3,6.3,0,0,0,5.369-6.207v-.02c.029-.363-.073-1.432-.869-1.652a16.972,16.972,0,0,0-4.059-.319H9.367ZM5.33,10.837c-.255.107-.281.46-.039.8L6.583,13.5a.819.819,0,0,0,.879.421c.246-.107.268-.463.032-.8l-1.28-1.87A.837.837,0,0,0,5.33,10.837Zm8.948,0c-.253-.11-.636.079-.872.416l-1.3,1.87c-.23.338-.206.694.051.8s.64-.079.872-.421l1.3-1.866c.224-.34.209-.693-.049-.8Z" transform="translate(310 1128.789)" fill-rule="evenodd"/>
  </g>
</svg>
