<svg xmlns="http://www.w3.org/2000/svg" width="17.996" height="18.306" viewBox="0 0 17.996 18.306">
  <path id="m-1" d="M8.969,3h.542a13.375,13.375,0,0,1,4.32.462c.843.32.957,1.89.935,2.412v.031c0,6.706-4.555,9.075-5.721,9.075a5.551,5.551,0,0,1-3.317-2.059A10.317,10.317,0,0,1,3.334,5.907V5.879c-.029-.526.078-2.1.936-2.415A13.219,13.219,0,0,1,8.573,3h.4ZM4.1,18.306l1.929-2.739a4.836,4.836,0,0,0,2.994,1.567,4.74,4.74,0,0,0,3.012-1.567l1.92,2.739Zm11.217,0-2.458-3.681a13.391,13.391,0,0,0,2.507-8.219c.008-.377.05-3.02-1.6-3.757a11.478,11.478,0,0,0-4.326-.592H8.609a11.482,11.482,0,0,0-4.326.592c-1.661.736-1.619,3.379-1.607,3.757a13.146,13.146,0,0,0,2.4,8.08c.038.051.08.1.114.15L2.738,18.306H1.8A1.81,1.81,0,0,1,0,16.481V1.83A1.811,1.811,0,0,1,1.8,0H16.2A1.819,1.819,0,0,1,18,1.83V16.481a1.818,1.818,0,0,1-1.8,1.826ZM8.625,3.672a15.625,15.625,0,0,0-3.738.294c-.734.2-.834,1.187-.813,1.525v.015A5.609,5.609,0,0,0,6.159,9.93,5.332,5.332,0,0,0,9.03,11.222a5.8,5.8,0,0,0,4.944-5.716V5.487c.026-.334-.068-1.319-.8-1.521a15.629,15.629,0,0,0-3.738-.294h-.81ZM4.909,9.98c-.235.1-.258.424-.036.736l1.189,1.718a.754.754,0,0,0,.81.388c.227-.1.247-.426.029-.738L5.722,10.363A.77.77,0,0,0,4.909,9.98Zm8.24,0c-.233-.1-.586.073-.8.383l-1.194,1.722c-.212.312-.189.639.047.738s.59-.073.8-.388l1.193-1.718c.207-.313.192-.638-.045-.736Z" fill="#fff" fill-rule="evenodd"/>
</svg>
