<svg xmlns="http://www.w3.org/2000/svg" width="14.295" height="18.291" viewBox="0 0 14.295 18.291">
  <path id="Union_11" data-name="Union 11" d="M19384.545,1342.1l-2.16-3.08a5.349,5.349,0,0,1-3.393,1.764,5.472,5.472,0,0,1-3.371-1.764l-2.17,3.08h-1.533l2.766-4.132c-.037-.051-.084-.11-.127-.169a14.786,14.786,0,0,1-2.709-9.1c-.014-.425-.059-3.4,1.807-4.231a13.041,13.041,0,0,1,4.875-.664h.932a12.978,12.978,0,0,1,4.869.664c1.861.832,1.814,3.809,1.807,4.231a15.079,15.079,0,0,1-2.824,9.254l2.764,4.143Zm-10.9-16.707c-.965.359-1.09,2.127-1.057,2.717v.033a11.6,11.6,0,0,0,2.7,7.9,6.259,6.259,0,0,0,3.734,2.317c1.314,0,6.441-2.665,6.441-10.218v-.037c.027-.587-.107-2.354-1.053-2.713a14.969,14.969,0,0,0-4.865-.521h-1.055A14.8,14.8,0,0,0,19373.646,1325.391Zm7.8,10.533c-.268-.11-.295-.477-.051-.829l1.342-1.939c.244-.348.643-.546.9-.429s.283.473.051.829l-1.342,1.932a.981.981,0,0,1-.734.47A.41.41,0,0,1,19381.443,1335.924Zm-5.783-.436-1.34-1.932c-.244-.356-.221-.719.043-.829s.676.081.914.429l1.33,1.939c.244.352.225.719-.031.829a.444.444,0,0,1-.174.034A.972.972,0,0,1,19375.66,1335.488Zm.111-2.819a6.307,6.307,0,0,1-2.35-4.979v-.018c-.021-.381.09-1.489.916-1.716a17.582,17.582,0,0,1,4.209-.33h.914a17.663,17.663,0,0,1,4.209.33c.824.227.928,1.334.9,1.712v.022a6.531,6.531,0,0,1-5.57,6.434A6,6,0,0,1,19375.771,1332.668Z" transform="translate(-19371.844 -1323.807)" fill="#e9cc83"/>
</svg>
