<svg id="Group_37014" data-name="Group 37014" xmlns="http://www.w3.org/2000/svg" xmlns:xlink="http://www.w3.org/1999/xlink" width="32.4" height="40" viewBox="0 0 32.4 40">
  <defs>
    <linearGradient id="linear-gradient" x1="0.247" y1="-0.126" x2="1.496" y2="1.071" gradientUnits="objectBoundingBox">
      <stop offset="0" stop-opacity="0.2"/>
      <stop offset="1" stop-opacity="0"/>
    </linearGradient>
  </defs>
  <g id="Group_37013" data-name="Group 37013" transform="translate(0 0)">
    <path id="Path_74896" data-name="Path 74896" d="M42.2,20A3.2,3.2,0,0,0,39,23.2V56.8A3.2,3.2,0,0,0,42.2,60h26a3.2,3.2,0,0,0,3.2-3.2V30l-10-10Z" transform="translate(-39 -20)" fill="#feb519" fill-rule="evenodd"/>
  </g>
  <path id="Path_74897" data-name="Path 74897" d="M90.464,100.973a6.34,6.34,0,0,1-3.691-1.507,35.515,35.515,0,0,0-5.937,1.909c-1.546,2.764-2.993,4.171-4.24,4.171a1.29,1.29,0,0,1-.748-.2A1.481,1.481,0,0,1,75,103.988c0-.452.1-1.709,4.839-3.769a35.9,35.9,0,0,0,2.644-6.231c-.6-1.206-1.9-4.171-1-5.679a1.585,1.585,0,0,1,1.547-.8,1.651,1.651,0,0,1,1.3.653c.649.9.6,2.814-.249,5.628a15.145,15.145,0,0,0,3.093,4.02,16.7,16.7,0,0,1,3.143-.352c2.345.05,2.694,1.156,2.644,1.809C92.959,100.973,91.312,100.973,90.464,100.973ZM76.5,104.089l.15-.05a3.219,3.219,0,0,0,1.646-1.407,3.946,3.946,0,0,0-1.8,1.458Zm6.635-15.076h-.15a.3.3,0,0,0-.2.05,4.131,4.131,0,0,0,.3,2.563A4.251,4.251,0,0,0,83.131,89.013Zm.349,7.287-.05.1-.05-.05c-.449,1.156-.948,2.312-1.5,3.417l.1-.05v.1a28.881,28.881,0,0,1,3.392-1l-.05-.05h.15A15.373,15.373,0,0,1,83.481,96.3Zm6.784,2.663a5.663,5.663,0,0,0-1.3.1,4.162,4.162,0,0,0,1.5.4,2.19,2.19,0,0,0,1-.1C91.462,99.214,91.263,98.963,90.265,98.963Z" transform="translate(-67.782 -74.028)" fill="#fff"/>
  <path id="Path_74898" data-name="Path 74898" d="M163.833,65.313h-8.145l9.086,9.086V66.252Z" transform="translate(-132.374 -56.257)" fill="url(#linear-gradient)"/>
  <path id="Path_74899" data-name="Path 74899" d="M154.208,30.026h6.817L151,20v6.817A3.208,3.208,0,0,0,154.208,30.026Z" transform="translate(-128.626 -20)" fill="#ffdc90"/>
</svg>
