<svg id="Group_37014" data-name="Group 37014" xmlns="http://www.w3.org/2000/svg" xmlns:xlink="http://www.w3.org/1999/xlink" width="16.2" height="20" viewBox="0 0 16.2 20">
  <defs>
    <linearGradient id="linear-gradient" x1="0.247" y1="-0.126" x2="1.496" y2="1.071" gradientUnits="objectBoundingBox">
      <stop offset="0" stop-opacity="0.2"/>
      <stop offset="1" stop-opacity="0"/>
    </linearGradient>
  </defs>
  <g id="Group_37013" data-name="Group 37013" transform="translate(0 0)">
    <path id="Path_74896" data-name="Path 74896" d="M40.6,20A1.6,1.6,0,0,0,39,21.6V38.4A1.6,1.6,0,0,0,40.6,40h13a1.6,1.6,0,0,0,1.6-1.6V25l-5-5Z" transform="translate(-39 -20)" fill="#e9cc83" fill-rule="evenodd"/>
  </g>
  <path id="Path_74897" data-name="Path 74897" d="M82.735,94.233a3.173,3.173,0,0,1-1.846-.753,17.777,17.777,0,0,0-2.969.954c-.773,1.381-1.5,2.084-2.121,2.084a.646.646,0,0,1-.374-.1A.74.74,0,0,1,75,95.74c0-.226.05-.854,2.42-1.884a17.934,17.934,0,0,0,1.323-3.114c-.3-.6-.948-2.085-.5-2.838a.793.793,0,0,1,.774-.4.826.826,0,0,1,.649.326c.324.452.3,1.406-.125,2.813a7.57,7.57,0,0,0,1.547,2.009,8.362,8.362,0,0,1,1.572-.176c1.173.025,1.348.577,1.323.9C83.983,94.233,83.16,94.233,82.735,94.233ZM75.749,95.79l.075-.025a1.61,1.61,0,0,0,.823-.7,1.973,1.973,0,0,0-.9.728Zm3.319-7.534h-.075a.15.15,0,0,0-.1.025,2.063,2.063,0,0,0,.15,1.281A2.123,2.123,0,0,0,79.067,88.256Zm.175,3.642-.025.05-.025-.025c-.225.578-.474,1.155-.749,1.708l.05-.025v.05a14.455,14.455,0,0,1,1.7-.5l-.025-.025h.075A7.683,7.683,0,0,1,79.242,91.9Zm3.393,1.331a2.836,2.836,0,0,0-.649.05,2.083,2.083,0,0,0,.749.2,1.1,1.1,0,0,0,.5-.05C83.234,93.354,83.135,93.229,82.635,93.229Z" transform="translate(-71.393 -80.761)" fill="#fff"/>
  <path id="Path_74898" data-name="Path 74898" d="M159.758,65.313h-4.07l4.541,4.541V65.782Z" transform="translate(-144.029 -60.784)" fill="url(#linear-gradient)"/>
  <path id="Path_74899" data-name="Path 74899" d="M152.6,25.01h3.407L151,20v3.407A1.6,1.6,0,0,0,152.6,25.01Z" transform="translate(-139.81 -20)" fill="#fae8ba"/>
</svg>
