<svg xmlns="http://www.w3.org/2000/svg" width="17.889" height="18.3" viewBox="0 0 17.889 18.3">
  <g id="Group_38684" data-name="Group 38684" transform="translate(-2.23 -2.004)">
    <path id="Path_90952" data-name="Path 90952" d="M18.778,7.33l-7.05,4.083a.944.944,0,0,1-.934,0L3.745,7.33A.929.929,0,0,1,3.5,5.92,3.284,3.284,0,0,1,4.386,5.2L9.348,2.45a4.364,4.364,0,0,1,3.845,0L18.155,5.2a3.466,3.466,0,0,1,.888.723A.944.944,0,0,1,18.778,7.33Z" transform="translate(-0.088)" fill="#e9cc83"/>
    <path id="Path_90953" data-name="Path 90953" d="M10.653,13.7v6.244a.925.925,0,0,1-1.328.851c-1.886-.925-5.063-2.655-5.063-2.655A4.487,4.487,0,0,1,2.23,14.606V9.881a.926.926,0,0,1,1.382-.824L10.2,12.875A.985.985,0,0,1,10.653,13.7Z" transform="translate(0 -0.585)" fill="#e9cc83"/>
    <path id="Path_90954" data-name="Path 90954" d="M12.57,13.7v6.244a.925.925,0,0,0,1.328.851c1.886-.925,5.063-2.655,5.063-2.655a4.487,4.487,0,0,0,2.032-3.534V9.881a.926.926,0,0,0-1.382-.824l-6.583,3.818A.985.985,0,0,0,12.57,13.7Z" transform="translate(-0.874 -0.585)" fill="#e9cc83"/>
  </g>
</svg>
