<svg xmlns="http://www.w3.org/2000/svg" width="237.644" height="38.072" viewBox="0 0 237.644 38.072">
  <g id="logo" transform="translate(-0.008 -0.027)">
    <path id="Path_90739" data-name="Path 90739" d="M50.543,39.587H48.191a3.048,3.048,0,0,1-2.3-.753,3.451,3.451,0,0,1-.713-2.422v-.47a3.286,3.286,0,0,1,.914-2.493,3.454,3.454,0,0,1,2.481-.869,19.36,19.36,0,0,1,1.971.091v6.916Zm8.292-12.112H57.659a.46.46,0,0,0-.46.458V37.2c0,1.735-.392,2.338-2.834,2.338H52.536V31.5a.4.4,0,0,0-.072-.271.622.622,0,0,0-.285-.153,7.837,7.837,0,0,0-1.506-.271q-.918-.084-1.84-.082a5.731,5.731,0,0,0-4.175,1.436,5.185,5.185,0,0,0-1.471,3.9v.59a4.874,4.874,0,0,0,1.28,3.69,5.116,5.116,0,0,0,3.68,1.223h2.372V41.7a3.094,3.094,0,0,1-.31,1.384,1.775,1.775,0,0,1-.712.828,3.091,3.091,0,0,1-1.169.4,10.432,10.432,0,0,1-1.591.106c-.251,0-.361,0-.772-.01q-.432-.01-.864-.01c-.254,0-.38.106-.38.324v1.021a.37.37,0,0,0,.071.245.584.584,0,0,0,.309.127,2.744,2.744,0,0,0,.356.045c.206.015.344.028.589.035l.554.024c.246.006.408.011.567.011a9.74,9.74,0,0,0,2.158-.222,4.167,4.167,0,0,0,1.654-.754,3.436,3.436,0,0,0,1.058-1.41,5.494,5.494,0,0,0,.474-2.2v-.09h1.875c2.467,0,4.908-.479,4.908-4.246V27.933a.458.458,0,0,0-.46-.458ZM22.9,43.748h-.927a.615.615,0,0,0-.39.142.456.456,0,0,0-.18.375v1.269a.447.447,0,0,0,.18.342.594.594,0,0,0,.39.153H22.9a.554.554,0,0,0,.379-.153.451.451,0,0,0,.165-.342V44.265a.462.462,0,0,0-.165-.375.571.571,0,0,0-.379-.142m-3.892,0h-.926a.565.565,0,0,0-.394.142.483.483,0,0,0-.152.375v1.269a.469.469,0,0,0,.153.342.546.546,0,0,0,.393.153H19a.554.554,0,0,0,.38-.153.455.455,0,0,0,.165-.342V44.265a.484.484,0,0,0-.153-.375A.557.557,0,0,0,19,43.748" transform="translate(-5.356 -8.467)" fill="#fff" fill-rule="evenodd"/>
    <path id="Path_90740" data-name="Path 90740" d="M34.194,23.472a.465.465,0,0,0-.118-.317.437.437,0,0,0-.333-.129H32.628a.4.4,0,0,0-.31.129.453.453,0,0,0-.118.317c.029,1.22.047,2.39.047,3.508V30.3a2.456,2.456,0,0,1-.037.494.4.4,0,0,1-.152.246.6.6,0,0,1-.321.093c-.135.008-.321.013-.559.013h-.759c-.206,0-.417-.009-.639-.024a5,5,0,0,1-.629-.082,1.958,1.958,0,0,1-.511-.164.53.53,0,0,1-.283-.294V24.363a.465.465,0,0,0-.12-.318.4.4,0,0,0-.312-.128H26.836a.436.436,0,0,0-.319.128.43.43,0,0,0-.131.318V30.3a.607.607,0,0,1-.167.446,1.04,1.04,0,0,1-.393.246,2.117,2.117,0,0,1-.5.117,3.781,3.781,0,0,1-.485.037h-.521c-.144,0-.31-.009-.5-.024a4.292,4.292,0,0,1-.559-.082,2.218,2.218,0,0,1-.5-.164.532.532,0,0,1-.3-.294V25.162a.486.486,0,0,0-.119-.328.38.38,0,0,0-.308-.141H20.949a.387.387,0,0,0-.308.141.5.5,0,0,0-.117.328v5.067a.645.645,0,0,1-.18.483,1.083,1.083,0,0,1-.426.255,2.216,2.216,0,0,1-.535.106q-.26.022-.521.024h-.538q-.249,0-.5-.024a4.077,4.077,0,0,1-.558-.082,2.284,2.284,0,0,1-.5-.164.546.546,0,0,1-.3-.293V24.081a.431.431,0,0,0-.13-.315.44.44,0,0,0-.319-.13H14.928a.431.431,0,0,0-.318.13.42.42,0,0,0-.132.315v6.148a.65.65,0,0,1-.178.483,1.075,1.075,0,0,1-.437.255,2.381,2.381,0,0,1-.549.106c-.187.016-.365.024-.522.024H10.347V19.5a.441.441,0,0,0-.117-.317.4.4,0,0,0-.308-.13H8.617a.4.4,0,0,0-.308.13.442.442,0,0,0-.118.317V32.857c0,.3,0,.61-.012.94s-.019.711-.035,1.15a2.035,2.035,0,0,1-.632.14c-.372.017-.255.024-.589.024a5.363,5.363,0,0,1-2.476-.457A3.7,3.7,0,0,1,2.822,33.4,4.384,4.384,0,0,1,2.1,31.522a14.965,14.965,0,0,1-.167-2.3c0-.266.015-.589.047-.974s.065-.753.094-1.112c.047-.33-.072-.5-.355-.5H.7c-.239,0-.379.15-.427.448-.05.234-.088.488-.119.764s-.06.544-.083.82-.04.531-.049.774-.012.44-.012.6a11.387,11.387,0,0,0,.356,2.98,5.282,5.282,0,0,0,1.2,2.227,5.306,5.306,0,0,0,2.244,1.4,8.3,8.3,0,0,0,3.069.481,7.191,7.191,0,0,0,1.159-.083,13.262,13.262,0,0,0,1.721-.268,1.07,1.07,0,0,0,.354-.164.481.481,0,0,0,.146-.331q.021-.281.033-.679.026-.851.048-1.7c.008-.29.009-.549.009-.785h2.162a8.255,8.255,0,0,0,1.484-.153,3.158,3.158,0,0,0,1.412-.622,2.842,2.842,0,0,0,1.389.622,8.906,8.906,0,0,0,1.576.153h.3a8.382,8.382,0,0,0,1.544-.153,2.98,2.98,0,0,0,1.376-.622,2.791,2.791,0,0,0,1.305.622,7.611,7.611,0,0,0,1.494.153h.4a6.185,6.185,0,0,0,1.554-.187,3.015,3.015,0,0,0,1.2-.588,3.263,3.263,0,0,0,1.469.61,10.63,10.63,0,0,0,1.708.14h.383c.5,0,.985-.018,1.434-.058a5.182,5.182,0,0,0,1.055-.177.817.817,0,0,0,.4-.281,1.2,1.2,0,0,0,.153-.423q.059-.674.083-1.351c.008-.241.012-.48.012-.712V26.124c0-.391,0-.8-.012-1.221s-.02-.9-.035-1.43m-2.027-10.02a6.592,6.592,0,0,1-3.2.937c-1.376,0-2.18-.446-2.18-2.134v-.281c0-1.665.759-2.3,3.627-2.3h1.755Zm-2.536-10.6a20.714,20.714,0,0,0-3.676.3c-.332.047-.5.188-.5.446v.823c0,.3.214.373.426.373H26a35.127,35.127,0,0,1,3.627-.188c1.85,0,2.537.68,2.537,2.65V8.2H30.412C26.191,8.2,24.7,9.467,24.7,12v.284c0,2.928,1.848,3.8,3.867,3.8a7.3,7.3,0,0,0,3.653-1.147v.515a.471.471,0,0,0,.47.471h1.094a.472.472,0,0,0,.472-.47V7.261c0-2.766-1.326-4.407-4.623-4.407Zm-7.465,0a5.7,5.7,0,0,0-3.342,1.125V3.487a.453.453,0,0,0-.453-.47H17.256a.453.453,0,0,0-.451.469V15.444a.47.47,0,0,0,.451.471h1.162a.49.49,0,0,0,.474-.471V5.619a6.16,6.16,0,0,1,3.273-.983c.332,0,.5-.141.5-.4V3.276q0-.422-.5-.423ZM13.562,14.2H11.59c-.948,0-1.278-.187-1.278-1.48V4.753h3.2a.474.474,0,0,0,.476-.468v-.8a.472.472,0,0,0-.476-.47h-3.2V.463a.378.378,0,0,0-.358-.4H9.882L8.649.254a.478.478,0,0,0-.427.468v2.3H6.781a.414.414,0,0,0-.451.422v.633c0,.258.187.4.451.423l1.44.256v8.183c0,2.58,1.045,3.14,3.226,3.14.451,0,1.712-.044,2.187-.116.307-.046.426-.187.426-.4V14.531c0-.236-.165-.328-.5-.328ZM50.1,2.831a9.589,9.589,0,0,0-3.936.962A2.9,2.9,0,0,0,43.8,2.831a6.731,6.731,0,0,0-3.463,1.1V3.487a.453.453,0,0,0-.451-.469H38.7a.453.453,0,0,0-.451.469V15.444a.432.432,0,0,0,.4.471h1.257a.45.45,0,0,0,.428-.471V5.55a7.236,7.236,0,0,1,2.892-.914c1.233,0,1.828.423,1.828,2.462v8.345a.431.431,0,0,0,.4.47h1.257a.448.448,0,0,0,.426-.47V7.1a6.933,6.933,0,0,0-.212-1.829A8.309,8.309,0,0,1,49.7,4.636c1.232,0,2.159.538,2.159,2.508v8.3a.473.473,0,0,0,.473.471h1.139a.473.473,0,0,0,.475-.471v-8.3C53.947,3.885,52.239,2.831,50.1,2.831ZM72.155,37.756h5.066c3.485,0,10.115.6,10.884-6.392,1.325-12.011-7.61-17.945-.149-31.157-1.311,1.367-12.447,14.1-15.8,37.549Z" transform="translate(0 -0.011)" fill="#fff" fill-rule="evenodd"/>
    <path id="Path_90741" data-name="Path 90741" d="M97.772,37.746C101.323,12.857,113.619.036,113.619.036H100.413a8.745,8.745,0,0,0-8.785,8.705v.6h8.146c2.91,0,2.642,1.508,1.883,4.022s-5.706,15.965-6.849,24.387ZM117.869.027S114.653,6,115.231,9.215l4.181.015a8.744,8.744,0,0,0,8.82-8.708v-.5H117.869Zm47.5,16.188h-1.136a.464.464,0,0,1-.467-.464V7.478c0-1.965-.922-2.506-2.145-2.506a8.255,8.255,0,0,0-2.76.633,6.882,6.882,0,0,1,.21,1.825v8.322a.441.441,0,0,1-.422.463H157.4a.427.427,0,0,1-.4-.464V7.43c0-2.034-.589-2.458-1.811-2.458a7.128,7.128,0,0,0-2.877.915v9.865a.446.446,0,0,1-.428.464h-1.246a.424.424,0,0,1-.4-.464V3.83a.45.45,0,0,1,.446-.468h1.181a.45.45,0,0,1,.447.468v.441a6.663,6.663,0,0,1,3.439-1.1,2.89,2.89,0,0,1,2.361.958,9.525,9.525,0,0,1,3.911-.958c2.122,0,3.826,1.051,3.826,4.3v8.274a.471.471,0,0,1-.475.464m11.46-7.547c0-2.642-1.014-3.67-3.089-3.67-2.031,0-3.16,1.143-3.16,3.67v.211h6.248V8.669Zm1.651,1.775h-7.9v.329c0,2.78,1.109,3.813,3.278,3.813a32.344,32.344,0,0,0,4.2-.261h.122a.328.328,0,0,1,.37.329v.795c0,.3-.09.466-.469.536a21.582,21.582,0,0,1-4.22.4c-2.713,0-5.354-1.264-5.354-5.611v-2.1c0-3.343,1.864-5.469,5.236-5.469,3.446,0,5.186,2.148,5.186,5.469v1.26a.452.452,0,0,1-.446.514Zm8.913,5.823a12.2,12.2,0,0,1-1.537.116c-2.168,0-3.2-.56-3.2-3.133V5.09l-2.288-.258c-.256-.023-.449-.161-.449-.42V3.783a.416.416,0,0,1,.45-.421h2.287V1.073A.481.481,0,0,1,183.082.6l1.224-.185h.074a.371.371,0,0,1,.35.4v2.55h2.543a.472.472,0,0,1,.476.468v.793a.471.471,0,0,1-.476.468h-2.543V13.25c0,1.285.332,1.472,1.273,1.472h1.32c.332,0,.5.094.5.329v.818c0,.211-.116.346-.422.4m7.825-11.295a6.079,6.079,0,0,0-3.254.985v9.795a.485.485,0,0,1-.469.465h-1.16a.468.468,0,0,1-.448-.464V3.829a.453.453,0,0,1,.448-.468h1.108a.452.452,0,0,1,.45.468V4.32A5.667,5.667,0,0,1,195.222,3.2c.334,0,.5.141.5.421v.957c0,.257-.163.4-.5.4M205.24,8.9c0-2.386-.969-3.9-3.183-3.9-2.194,0-3.157,1.495-3.157,3.9v1.778c0,2.384.941,3.907,3.157,3.907,2.192,0,3.183-1.5,3.183-3.907Zm-3.183,7.481c-3.468,0-5.234-2.269-5.234-5.7V8.9c0-3.437,1.766-5.7,5.235-5.7s5.257,2.266,5.257,5.7v1.777c0,3.434-1.793,5.7-5.258,5.7ZM182.335,30.291c0,.358-.224.577-.661.655a9.415,9.415,0,0,1-1.582.118,3.194,3.194,0,0,1-2.4-.75,3.424,3.424,0,0,1-.706-2.408v-.466a3.255,3.255,0,0,1,.907-2.481,3.423,3.423,0,0,1,2.462-.863,17.792,17.792,0,0,1,1.983.1v6.1Zm1.6-7.69a7.685,7.685,0,0,0-1.5-.271q-.912-.082-1.828-.082a5.7,5.7,0,0,0-4.15,1.427A5.151,5.151,0,0,0,175,27.558v.582a4.841,4.841,0,0,0,1.274,3.67,4.735,4.735,0,0,0,3.418,1.215c.188,0,.4,0,.658-.011a6.61,6.61,0,0,0,.765-.071,6.038,6.038,0,0,0,.7-.139,1.191,1.191,0,0,0,.486-.223v1.01a2.825,2.825,0,0,1-.291,1.375,2.068,2.068,0,0,1-.825.823,3.793,3.793,0,0,1-1.29.4,12.729,12.729,0,0,1-1.69.105c-.256,0-.584,0-.992-.014s-.75-.01-1.019-.01c-.248,0-.375.11-.375.324v1.016a.376.376,0,0,0,.067.24.565.565,0,0,0,.308.125,3.877,3.877,0,0,0,.427.047c.2.016.429.029.672.035s.486.018.732.024.444.014.6.014a10.943,10.943,0,0,0,2.292-.225,4.715,4.715,0,0,0,1.789-.769,3.647,3.647,0,0,0,1.179-1.486,5.839,5.839,0,0,0,.424-2.385V23.02a.4.4,0,0,0-.071-.268.776.776,0,0,0-.3-.15Zm16.61-4.2h-1.136a.443.443,0,0,0-.445.442v9.909c0,1.676-.381,2.26-2.739,2.26h-.558l-.026-2.995a9.263,9.263,0,0,0-.366-2.311,4.791,4.791,0,0,0-1-1.825,4.439,4.439,0,0,0-1.791-1.19,7.6,7.6,0,0,0-2.69-.423c-.172,0-.443.009-.813.023a10.336,10.336,0,0,0-1.167.12.53.53,0,0,0-.366.139.429.429,0,0,0-.1.3v.96c0,.251.155.36.469.328a7.393,7.393,0,0,1,.836-.059q.372-.01.744-.012a4.4,4.4,0,0,1,3.231,1.006,4.373,4.373,0,0,1,1.038,3.063l.022,2.875h-6.44a.5.5,0,0,0-.328.115.375.375,0,0,0-.14.3v1.192a.342.342,0,0,0,.14.292.525.525,0,0,0,.329.107h9c2.381,0,4.739-.5,4.739-4.142V18.846a.444.444,0,0,0-.443-.442ZM157.535,29.469a1.009,1.009,0,0,1-.19.624,1.321,1.321,0,0,1-.494.386,2.392,2.392,0,0,1-.687.187,5.682,5.682,0,0,1-.731.046h-.446a2.644,2.644,0,0,1-2.17-.786,3.415,3.415,0,0,1-.634-2.193v-.49a3.692,3.692,0,0,1,.292-1.563,2.542,2.542,0,0,1,.8-.984,3.092,3.092,0,0,1,1.217-.5,7.93,7.93,0,0,1,1.558-.142c.2,0,.422.008.659.026s.507.035.824.067v5.327Zm15.671,1.414-.99-2.5-.234-.6a12.819,12.819,0,0,0-1.46-2.672,6.892,6.892,0,0,0-1.7-1.632,5.83,5.83,0,0,0-1.957-.815,10.392,10.392,0,0,0-2.217-.222c-.283,0-.642.016-1.075.045a8.063,8.063,0,0,0-1.165.161.621.621,0,0,0-.353.152.4.4,0,0,0-.1.29v.946c0,.247.177.352.517.323.128-.017.273-.027.438-.038s.33-.017.5-.032.314-.028.443-.034.235-.016.3-.016a6.131,6.131,0,0,1,3.5.879,5.993,5.993,0,0,1,2.064,2.652l.546,1.24.847,2.012h-9.943a2.312,2.312,0,0,1-1.2-.27c-.3-.179-.449-.581-.449-1.2V22.974a.562.562,0,0,0-.064-.292c-.037-.069-.135-.118-.292-.152a5.355,5.355,0,0,0-.613-.126c-.235-.042-.485-.076-.74-.105s-.523-.054-.791-.071-.5-.023-.709-.023a9.8,9.8,0,0,0-2.464.291,5.3,5.3,0,0,0-1.928.91,4.118,4.118,0,0,0-1.267,1.6,5.667,5.667,0,0,0-.447,2.359v.608a4.7,4.7,0,0,0,1.177,3.458,4.536,4.536,0,0,0,3.371,1.193h.213a7.01,7.01,0,0,0,1.827-.222,2.21,2.21,0,0,0,1.235-.736,2.126,2.126,0,0,0,1.1,1.051,4.537,4.537,0,0,0,1.775.3H172.64a.742.742,0,0,0,.544-.152.57.57,0,0,0,.139-.409v-.839a2.54,2.54,0,0,0-.032-.42C173.263,31.1,173.24,30.99,173.206,30.882Zm33.111-12.36a.375.375,0,0,0-.3-.14h-1.157a.4.4,0,0,0-.314.14.428.428,0,0,0-.135.326V32.558a.424.424,0,0,0,.135.327.408.408,0,0,0,.314.141h1.156a.378.378,0,0,0,.3-.141.492.492,0,0,0,.121-.327V18.849a.5.5,0,0,0-.12-.326Zm-48.89,2.066h.917a.581.581,0,0,0,.382-.139.448.448,0,0,0,.16-.35V18.837a.471.471,0,0,0-.16-.376.563.563,0,0,0-.382-.14h-.917a.613.613,0,0,0-.391.14.46.46,0,0,0-.17.376V20.1a.44.44,0,0,0,.17.35.635.635,0,0,0,.391.139Zm-3.867,0h.921a.582.582,0,0,0,.377-.139.437.437,0,0,0,.163-.35V18.837a.487.487,0,0,0-.149-.376.561.561,0,0,0-.391-.14h-.921a.559.559,0,0,0-.391.14.5.5,0,0,0-.15.376V20.1a.478.478,0,0,0,.15.35A.578.578,0,0,0,153.559,20.589ZM265.415.685a1.042,1.042,0,0,0-.638-.274h-9a35.118,35.118,0,0,0-11.366,1.832,21.148,21.148,0,0,1,7.78,7.122h3.465v28.72h.783a9.947,9.947,0,0,0,9.211-9.881V1.248a.94.94,0,0,0-.241-.562M241.225,23.973c-2.147,0-2.887-3.16-2.887-5.583a11.58,11.58,0,0,1,2.887-7.851,11.914,11.914,0,0,1,2.809,7.851c0,2.423-.66,5.583-2.809,5.583m8.446-13.662c-.118-.2-.256-.4-.384-.6A21.151,21.151,0,0,0,240.4,2.719,34.729,34.729,0,0,0,227.75.412H217.719a.929.929,0,0,0-.63.235c-.334.313-.3.56-.3.56v27a9.943,9.943,0,0,0,9.259,9.881h.74V9.365H233.3a15.8,15.8,0,0,0-2.668,9.173c0,8,4.74,13.139,10.589,13.139s10.587-5.14,10.587-13.138a16.018,16.018,0,0,0-2.133-8.211c0-.006-.008-.012-.008-.018" transform="translate(-28.003)" fill="#fff" fill-rule="evenodd"/>
  </g>
</svg>
