<svg id="Group_38201" data-name="Group 38201" xmlns="http://www.w3.org/2000/svg" width="17.326" height="17" viewBox="0 0 17.326 17">
  <path id="Path_175" data-name="Path 175" d="M4.55,89.087a.671.671,0,0,0,.469-.2.662.662,0,0,0,0-.933L1.18,84.141a.672.672,0,0,0-.938,0,.662.662,0,0,0,0,.933l3.839,3.815a.671.671,0,0,0,.469.2" transform="translate(12.114 -72.087)"/>
  <path id="Path_176" data-name="Path 176" d="M21.95,15.205A7.6,7.6,0,1,0,14.3,7.6a7.629,7.629,0,0,0,7.65,7.6m0-13.877A6.274,6.274,0,1,1,15.637,7.6,6.3,6.3,0,0,1,21.95,1.328" transform="translate(-14.3)"/>
</svg>
