<svg xmlns="http://www.w3.org/2000/svg" width="17.859" height="18.291" viewBox="0 0 17.859 18.291">
  <g id="Group_38683" data-name="Group 38683" transform="translate(-2.238 -2.008)">
    <path id="Path_90949" data-name="Path 90949" d="M11.429,2.194l-2.2,5.133H7.02a5.18,5.18,0,0,0-1.07.1l.915-2.2L6.9,5.15,6.956,5a1.451,1.451,0,0,1,.073-.165C8.09,2.377,9.279,1.609,11.429,2.194Z" transform="translate(-0.316 0)" fill="#e9cc83"/>
    <path id="Path_90950" data-name="Path 90950" d="M18.041,7.615l-.018-.009a6.118,6.118,0,0,0-1.674-.238H10.621L12.68,2.584l.027-.064c.128.046.265.11.4.156l2.022.851a6.054,6.054,0,0,1,2.4,1.537c.082.11.156.21.229.329a1.392,1.392,0,0,1,.183.393,1.224,1.224,0,0,1,.082.238A3.206,3.206,0,0,1,18.041,7.615Z" transform="translate(-0.713 -0.044)" fill="#e9cc83"/>
    <path id="Path_90951" data-name="Path 90951" d="M16.922,9.5a4.627,4.627,0,0,0-1.29-.183H6.7a4.37,4.37,0,0,0-1.757.357,4.477,4.477,0,0,0-2.708,4.108v1.784a5.168,5.168,0,0,0,.046.65q.3,4.364,4.666,4.657a4.934,4.934,0,0,0,.65.046h7.136c3.385,0,5.169-1.61,5.343-4.812.009-.174.018-.357.018-.54V13.785A4.483,4.483,0,0,0,16.922,9.5Zm-3.467,6.1h-1.6v1.656a.686.686,0,0,1-1.372,0V15.606H8.88a.686.686,0,1,1,0-1.372h1.6V12.687a.686.686,0,0,1,1.372,0v1.546h1.6a.686.686,0,0,1,0,1.372Z" transform="translate(0 -0.622)" fill="#e9cc83"/>
  </g>
</svg>
