<svg id="Group_37890" data-name="Group 37890" xmlns="http://www.w3.org/2000/svg" width="20.156" height="20" viewBox="0 0 20.156 20">
  <path id="Path_90780" data-name="Path 90780" d="M-3232.573,1466.084a3.235,3.235,0,0,1-1.418-1.235,7.269,7.269,0,0,1-1.395-2.915c-.036-.156-.023-.24.146-.293a8.437,8.437,0,0,0,1.429-.752c.243-.132.481-.273.719-.415.107-.064.168-.067.2.078a7.778,7.778,0,0,0,1.734,3.312,1.356,1.356,0,0,1-.6,2.148c-.064.026-.129.048-.194.072Z" transform="translate(3239.219 -1446.084)" fill="#e9cc83"/>
  <path id="Path_90781" data-name="Path 90781" d="M-2924.122,1286.894a.508.508,0,0,1-.48.261c-.849.032-1.7.075-2.545.113a2.425,2.425,0,0,1-.332,0,.358.358,0,0,1-.335-.336.338.338,0,0,1,.343-.343c.4-.026.8-.05,1.2-.067.594-.024,1.188-.04,1.781-.063a.407.407,0,0,1,.369.225Z" transform="translate(2944.28 -1279.229)" fill="#e9cc83"/>
  <path id="Path_90782" data-name="Path 90782" d="M-3224.266,1147.552a6,6,0,0,0-1.8.219.2.2,0,0,1-.262-.114q-1.354-2.4-2.717-4.8c-.055-.1-.086-.177.009-.274a9.1,9.1,0,0,0,2.014-3.565c.281-.83.531-1.671.843-2.491a5.458,5.458,0,0,1,.57-1.145c.025-.036.044-.1.1-.074.044.018.033.07.037.11a8.925,8.925,0,0,0,.64,2.415,34.564,34.564,0,0,0,4.929,8.658,8.335,8.335,0,0,0,1.687,1.705c.037.027.1.049.08.105s-.091.046-.142.049a7.265,7.265,0,0,1-1.859-.18c-.952-.188-1.9-.412-2.861-.545A8.335,8.335,0,0,0-3224.266,1147.552Z" transform="translate(3233.228 -1134.285)" fill="#e9cc83"/>
  <path id="Path_90783" data-name="Path 90783" d="M-3123.534,1121.217a2.076,2.076,0,0,0-.792.141c-.1.043-.179.043-.236-.075a17.155,17.155,0,0,1-1.6-4.324,2.106,2.106,0,0,1-.021-.682.425.425,0,0,1,.625-.382,3.035,3.035,0,0,1,1.084.786,20.614,20.614,0,0,1,2.635,3.384,34.807,34.807,0,0,1,3,5.591,11.785,11.785,0,0,1,.8,2.527,2.015,2.015,0,0,1,.021.762.419.419,0,0,1-.609.356,2.441,2.441,0,0,1-.856-.573,16.372,16.372,0,0,1-2.214-2.633c-.164-.231-.314-.473-.484-.7-.107-.143-.085-.227.049-.341a2.175,2.175,0,0,0-.3-3.548A2.1,2.1,0,0,0-3123.534,1121.217Z" transform="translate(3134.477 -1115.644)" fill="#e9cc83"/>
  <path id="Path_90784" data-name="Path 90784" d="M-3328.313,1327.263a2.856,2.856,0,0,1,1.43-2.45c.658-.4,1.332-.763,1.992-1.155.164-.1.232-.059.319.093q1.3,2.268,2.614,4.528c.09.156.077.232-.084.322-.663.373-1.314.767-1.979,1.138a2.846,2.846,0,0,1-4.231-1.919A2.544,2.544,0,0,1-3328.313,1327.263Z" transform="translate(3328.314 -1314.88)" fill="#e9cc83"/>
  <path id="Path_90785" data-name="Path 90785" d="M-2946.945,1188.384a.321.321,0,0,1-.321-.217.319.319,0,0,1,.1-.376,1.988,1.988,0,0,1,.262-.166l2.26-1.308a1.426,1.426,0,0,1,.147-.078.342.342,0,0,1,.449.135.343.343,0,0,1-.1.445c-.134.1-.281.174-.425.257l-2.082,1.2A.554.554,0,0,1-2946.945,1188.384Z" transform="translate(2962.946 -1183.104)" fill="#e9cc83"/>
  <path id="Path_90786" data-name="Path 90786" d="M-2993.467,1111.229a.6.6,0,0,1-.052.15q-.8,1.269-1.614,2.534a.319.319,0,0,1-.338.156.344.344,0,0,1-.279-.248.3.3,0,0,1,.035-.259q.809-1.277,1.626-2.55a.318.318,0,0,1,.4-.13A.334.334,0,0,1-2993.467,1111.229Z" transform="translate(3009.45 -1110.857)" fill="#e9cc83"/>
</svg>
