<svg xmlns="http://www.w3.org/2000/svg" width="28" height="28" viewBox="0 0 28 28">
  <path id="Path_90788" data-name="Path 90788" d="M10.124,2H21.862C26.96,2,30,5.038,30,10.134V21.852C30,26.962,26.96,30,21.862,30H10.138C5.04,30,2,26.962,2,21.866V10.134C1.986,5.038,5.026,2,10.124,2Zm1.961,14.742,4.944,4.942a1.049,1.049,0,0,0,1.485,0,1.056,1.056,0,0,0,0-1.484l-4.2-4.2,4.2-4.2a1.05,1.05,0,1,0-1.485-1.484l-4.944,4.942A1.031,1.031,0,0,0,12.085,16.742Z" transform="translate(-2 -2)" fill="#fff"/>
</svg>
