<svg xmlns="http://www.w3.org/2000/svg" width="25.354" height="19.996" viewBox="0 0 25.354 19.996">
  <g id="Group_37824" data-name="Group 37824" transform="translate(-1.971 -2)">
    <path id="Path_90749" data-name="Path 90749" d="M10.171,5.084C9.221.978,3.038.966,2.089,5.084c-.558,2.409.973,4.451,2.3,5.72a2.548,2.548,0,0,0,3.477,0C9.2,9.535,10.717,7.493,10.171,5.084Zm-4,1.9a1.187,1.187,0,0,1-.012-2.374h.012a1.187,1.187,0,1,1,0,2.374Z" fill="#e9cc83"/>
    <path id="Path_90750" data-name="Path 90750" d="M23.206,17.084c-.949-4.106-7.156-4.118-8.117,0-.558,2.409.973,4.45,2.314,5.72a2.563,2.563,0,0,0,3.489,0C22.233,21.534,23.764,19.493,23.206,17.084Zm-4.011,1.9a1.187,1.187,0,0,1-.012-2.373h.012a1.187,1.187,0,0,1,0,2.373Z" transform="translate(4 -1.493)" fill="#e9cc83"/>
    <path id="Path_90751" data-name="Path 90751" d="M12,19.75H9.319a2.751,2.751,0,0,1-1.81-4.82L15.5,7.94a1.248,1.248,0,0,0-.82-2.19H12a.75.75,0,0,1,0-1.5h2.68a2.751,2.751,0,0,1,1.81,4.82L8.5,16.06a1.248,1.248,0,0,0,.82,2.19H12a.75.75,0,0,1,0,1.5Z" transform="translate(2)" fill="#e9cc83"/>
  </g>
</svg>
