<svg xmlns="http://www.w3.org/2000/svg" width="49.152" height="50" viewBox="0 0 49.152 50">
  <path id="m-1" d="M24.5,8.2h1.481c6.945,0,10.232.681,11.8,1.263,2.3.873,2.614,5.161,2.553,6.589v.085c0,18.316-12.441,24.786-15.627,24.786-1.581,0-5.431-1.536-9.058-5.624-2.986-3.407-6.538-9.483-6.538-19.163v-.076c-.08-1.437.214-5.724,2.556-6.6C13.186,8.88,16.514,8.2,23.414,8.2H24.5ZM11.195,50l5.268-7.481c3.019,2.925,6.108,4.28,8.178,4.28,2.286,0,5.319-1.432,8.226-4.28L38.11,50Zm30.637,0L35.119,39.946c3.776-4.9,6.825-12.434,6.847-22.448.021-1.031.137-8.249-4.378-10.26C35.162,6.154,31.19,5.62,25.77,5.62H23.514c-5.394,0-9.414.534-11.817,1.617C7.161,9.248,7.276,16.466,7.309,17.5c.01,11.046,3.576,18.1,6.564,22.069.105.14.218.276.312.408L7.48,50H4.924A4.944,4.944,0,0,1,0,45.014V5A4.946,4.946,0,0,1,4.924,0H44.24a4.967,4.967,0,0,1,4.913,5V45.014A4.965,4.965,0,0,1,44.24,50ZM23.558,10.029c-6,0-8.866.438-10.209.8-2.006.553-2.277,3.242-2.22,4.166v.04a15.319,15.319,0,0,0,5.692,12.085,14.564,14.564,0,0,0,7.842,3.528c2.747,0,13.5-4.074,13.5-15.613v-.051c.072-.914-.185-3.6-2.186-4.155-1.34-.364-4.211-.8-10.21-.8H23.559ZM13.407,27.258c-.641.269-.706,1.157-.1,2.011l3.247,4.692a2.06,2.06,0,0,0,2.212,1.06c.619-.269.674-1.164.08-2.014L15.63,28.3A2.1,2.1,0,0,0,13.407,27.258Zm22.505,0c-.637-.276-1.6.2-2.194,1.046l-3.262,4.7c-.579.851-.517,1.746.127,2.014s1.61-.2,2.194-1.06l3.258-4.692c.564-.854.525-1.742-.124-2.011Z" fill="#e32526" fill-rule="evenodd"/>
</svg>
