<svg xmlns="http://www.w3.org/2000/svg" width="25.914" height="20" viewBox="0 0 25.914 20">
  <g id="metro-logo" transform="translate(0 0.001)">
    <path id="Path_90755" data-name="Path 90755" d="M25.787.145A.554.554,0,0,0,25.45,0H20.678a18.608,18.608,0,0,0-6.027.972,11.221,11.221,0,0,1,4.126,3.782h1.837V20h.416a5.278,5.278,0,0,0,4.884-5.244V.444a.5.5,0,0,0-.127-.3M12.958,12.507c-1.137,0-1.53-1.677-1.53-2.962a6.146,6.146,0,0,1,1.53-4.168,6.32,6.32,0,0,1,1.491,4.168c0,1.286-.35,2.962-1.491,2.962m4.479-7.251c-.061-.109-.135-.214-.2-.32a11.229,11.229,0,0,0-4.712-3.71A18.406,18.406,0,0,0,5.812,0H.492A.5.5,0,0,0,.158.125C-.019.291,0,.423,0,.423V14.754A5.277,5.277,0,0,0,4.912,20H5.3V4.754H8.757A8.4,8.4,0,0,0,7.343,9.623c0,4.247,2.514,6.974,5.615,6.974s5.615-2.727,5.615-6.974a8.506,8.506,0,0,0-1.131-4.358s0-.005-.005-.009" transform="translate(0 0)" fill="#e9cc83" fill-rule="evenodd"/>
  </g>
</svg>
