<svg xmlns="http://www.w3.org/2000/svg" xmlns:xlink="http://www.w3.org/1999/xlink" width="73" height="73" viewBox="0 0 73 73">
  <defs>
    <filter id="Rectangle_19749" x="0" y="0" width="73" height="73" filterUnits="userSpaceOnUse">
      <feOffset dy="8" input="SourceAlpha"/>
      <feGaussianBlur stdDeviation="6" result="blur"/>
      <feFlood flood-color="#8dc642" flood-opacity="0.161"/>
      <feComposite operator="in" in2="blur"/>
      <feComposite in="SourceGraphic"/>
    </filter>
    <filter id="Union_7" x="16.751" y="10.75" width="39.498" height="39.502" filterUnits="userSpaceOnUse">
      <feOffset dy="2" input="SourceAlpha"/>
      <feGaussianBlur stdDeviation="3" result="blur-2"/>
      <feFlood flood-opacity="0.239"/>
      <feComposite operator="in" in2="blur-2"/>
      <feComposite in="SourceGraphic"/>
    </filter>
  </defs>
  <g id="Group_38940" data-name="Group 38940" transform="translate(-546 -302)">
    <g transform="matrix(1, 0, 0, 1, 546, 302)" filter="url(#Rectangle_19749)">
      <rect id="Rectangle_19749-2" data-name="Rectangle 19749" width="37" height="37" rx="6" transform="translate(18 10)" fill="#8dc642"/>
    </g>
    <g id="Group_31833" data-name="Group 31833">
      <g transform="matrix(1, 0, 0, 1, 546, 302)" filter="url(#Union_7)">
        <path id="Union_7-2" data-name="Union 7" d="M11271-17920.75a10.258,10.258,0,0,1,10.247-10.25,10.259,10.259,0,0,1,10.251,10.25,10.261,10.261,0,0,1-10.251,10.252A10.26,10.26,0,0,1,11271-17920.75Zm2,0a8.258,8.258,0,0,0,8.249,8.248,8.259,8.259,0,0,0,8.253-8.248,8.26,8.26,0,0,0-8.253-8.248A8.26,8.26,0,0,0,11273-17920.75Zm5.806,3.678-2.493-2.5a1,1,0,0,1,0-1.414,1,1,0,0,1,1.413,0l1.786,1.787,5.266-5.26a1,1,0,0,1,1.413,0,1,1,0,0,1,0,1.412l-5.968,5.973a1.015,1.015,0,0,1-.711.291A1.011,1.011,0,0,1,11278.8-17917.072Z" transform="translate(-11244.75 17949.25)" fill="#fff" stroke="rgba(0,0,0,0)" stroke-width="1"/>
      </g>
    </g>
  </g>
</svg>
