<svg id="m-6" xmlns="http://www.w3.org/2000/svg" width="49.15" height="50" viewBox="0 0 49.15 50">
  <path id="Path_76216" data-name="Path 76216" d="M49.15,45a4.958,4.958,0,0,1-4.913,5H4.913A4.956,4.956,0,0,1,0,45V5A4.958,4.958,0,0,1,4.913,0H44.237A4.961,4.961,0,0,1,49.15,5V45Z" fill="#8163a9" fill-rule="evenodd"/>
  <path id="Union_5" data-name="Union 5" d="M13486.7-12822.639l-2.437-2.9a.884.884,0,0,1,.314-1.382,1.4,1.4,0,0,1,1.7.265l2.441,2.895a.88.88,0,0,1-.318,1.378,1.356,1.356,0,0,1-.687.176A1.327,1.327,0,0,1,13486.7-12822.639Zm-20.433.254a.879.879,0,0,1-.318-1.378l2.441-2.895a1.4,1.4,0,0,1,1.7-.265.885.885,0,0,1,.314,1.382l-2.437,2.9a1.332,1.332,0,0,1-1.012.43A1.363,1.363,0,0,1,13466.264-12822.385Zm-1.757-12.033h25.64c-.616,3.8-2.83,7.327-12.818,7.327S13465.126-12830.619,13464.507-12834.418Zm22.468-1.194a.5.5,0,0,1-.49-.462.486.486,0,0,1-.488.441h-.247a.491.491,0,0,1-.484-.491v-.244a.494.494,0,0,1,.484-.49h.247a.488.488,0,0,1,.489.46.494.494,0,0,1,.489-.443h.247a.493.493,0,0,1,.49.491v.247a.493.493,0,0,1-.49.491Zm-19.536,0a.5.5,0,0,1-.49-.5v-.243a.5.5,0,0,1,.49-.491h.247a.49.49,0,0,1,.485.443.5.5,0,0,1,.49-.46h.247a.491.491,0,0,1,.491.49v.247a.489.489,0,0,1-.491.488h-.247a.492.492,0,0,1-.488-.441.489.489,0,0,1-.487.462Zm-4.032-2.462c-.017-.3-.033-.589-.058-.873-.4-4.73,1.232-18.852,2.543-22.44,1.226-3.376,7.688-3.5,10.374-3.5h.9c2.688,0,9.147.121,10.377,3.5,1.311,3.589,2.938,17.71,2.543,22.44-.024.28-.041.572-.058.873Zm4.953-22.556c-1.049,2.868-2.417,14-2.465,19.594h21.648c-.051-5.6-1.422-16.726-2.465-19.594a.964.964,0,0,0-.2-.317h-16.326A.942.942,0,0,0,13468.359-12860.63Zm9.236,18.889a.4.4,0,0,1-.277-.111l-.471-.45a.427.427,0,0,1-.01-.6l7.231-7.252a.456.456,0,0,1,.274-.133.467.467,0,0,1,.331.112l.471.45a.382.382,0,0,1,.115.314.451.451,0,0,1-.122.288l-7.228,7.249a.456.456,0,0,1-.288.135Zm-.43-.843.44.373,7.211-7.235-.46-.4Z" transform="translate(-13452.729 12869.768)" fill="#fff"/>
</svg>
