<svg id="tram-logo" xmlns="http://www.w3.org/2000/svg" width="19.25" height="20" viewBox="0 0 19.25 20">
  <path id="Path_90756" data-name="Path 90756" d="M21.367,1c-.68.732-6.588,7.39-8.367,19.648h2.686c1.849,0,5.366.316,5.775-3.342.7-6.28-4.038-9.383-.079-16.29.007-.012,0-.027-.015-.017" transform="translate(-8.746 -0.659)" fill="#e9cc83" fill-rule="evenodd"/>
  <path id="Path_90757" data-name="Path 90757" d="M3.242,19.658C5.115,6.684,11.6,0,11.6,0H4.634A4.587,4.587,0,0,0,0,4.538v.31H4.3c1.536,0,1.4.786.995,2.1S2.281,15.268,1.678,19.658H3.242Z" transform="translate(0 0)" fill="#e9cc83" fill-rule="evenodd"/>
  <g id="Group_37831" data-name="Group 37831" transform="translate(12.172 0.068)">
    <path id="Path_90758" data-name="Path 90758" d="M1.481.2S-.26,3.409.053,5.133l2.265.009A4.717,4.717,0,0,0,7.094.467V.2H1.481Z" transform="translate(-0.015 -0.2)" fill="#e9cc83" fill-rule="evenodd"/>
  </g>
</svg>
