<svg xmlns="http://www.w3.org/2000/svg" xmlns:xlink="http://www.w3.org/1999/xlink" width="118.871" height="38" viewBox="0 0 118.871 38">
  <defs>
    <clipPath id="clip-path">
      <rect id="Rectangle_20664" data-name="Rectangle 20664" width="118.872" height="38" transform="translate(963 689)" fill="#aeaeae" stroke="#707070" stroke-width="1"/>
    </clipPath>
  </defs>
  <g id="Mask_Group_20848" data-name="Mask Group 20848" transform="translate(-963 -689)" clip-path="url(#clip-path)">
    <g id="logo" transform="translate(964.625 689)">
      <path id="Path_90762" data-name="Path 90762" d="M50.531,39.583H48.18a3.047,3.047,0,0,1-2.3-.752,3.45,3.45,0,0,1-.713-2.421v-.47a3.285,3.285,0,0,1,.913-2.492,3.453,3.453,0,0,1,2.48-.869,19.354,19.354,0,0,1,1.97.091v6.913Zm8.289-12.108H57.645a.46.46,0,0,0-.46.458V37.2c0,1.735-.391,2.337-2.833,2.337H52.524V31.5a.4.4,0,0,0-.072-.271.622.622,0,0,0-.285-.153,7.834,7.834,0,0,0-1.506-.271q-.917-.084-1.839-.082a5.729,5.729,0,0,0-4.174,1.435,5.183,5.183,0,0,0-1.47,3.9v.589a4.872,4.872,0,0,0,1.279,3.689,5.114,5.114,0,0,0,3.679,1.222h2.371V41.7a3.093,3.093,0,0,1-.31,1.383,1.775,1.775,0,0,1-.711.828,3.09,3.09,0,0,1-1.169.4,10.429,10.429,0,0,1-1.59.106c-.251,0-.361,0-.772-.01q-.432-.01-.863-.01c-.254,0-.38.106-.38.323v1.021a.37.37,0,0,0,.071.245.584.584,0,0,0,.309.127,2.741,2.741,0,0,0,.356.045c.205.015.344.028.589.035l.554.024c.246.006.408.011.567.011a9.737,9.737,0,0,0,2.157-.222,4.166,4.166,0,0,0,1.653-.754,3.435,3.435,0,0,0,1.058-1.409,5.492,5.492,0,0,0,.474-2.2v-.09h1.874c2.466,0,4.906-.479,4.906-4.244V27.933a.458.458,0,0,0-.459-.458ZM22.894,43.742h-.927a.615.615,0,0,0-.389.142.455.455,0,0,0-.18.375v1.269a.447.447,0,0,0,.18.342.594.594,0,0,0,.389.153h.927a.554.554,0,0,0,.379-.153.45.45,0,0,0,.165-.342V44.259a.462.462,0,0,0-.165-.375.571.571,0,0,0-.379-.142m-3.89,0h-.925a.565.565,0,0,0-.394.142.482.482,0,0,0-.152.375v1.269a.469.469,0,0,0,.153.342.546.546,0,0,0,.393.153H19a.554.554,0,0,0,.38-.153.455.455,0,0,0,.165-.342V44.259a.484.484,0,0,0-.153-.375A.557.557,0,0,0,19,43.742" transform="translate(-5.368 -8.501)" fill="#aeaeae" fill-rule="evenodd"/>
      <path id="Path_90763" data-name="Path 90763" d="M34.182,23.464a.465.465,0,0,0-.118-.317.436.436,0,0,0-.333-.129H32.617a.4.4,0,0,0-.31.129.452.452,0,0,0-.118.317c.029,1.219.047,2.389.047,3.506v3.318a2.456,2.456,0,0,1-.037.494.4.4,0,0,1-.152.246.6.6,0,0,1-.321.093c-.135.008-.321.013-.559.013h-.759c-.205,0-.417-.009-.639-.024a5,5,0,0,1-.629-.082,1.957,1.957,0,0,1-.511-.164.53.53,0,0,1-.283-.294V24.355a.464.464,0,0,0-.12-.318.4.4,0,0,0-.312-.128H26.826a.436.436,0,0,0-.319.128.43.43,0,0,0-.13.318v5.934a.606.606,0,0,1-.167.446,1.04,1.04,0,0,1-.393.246,2.116,2.116,0,0,1-.5.117,3.779,3.779,0,0,1-.485.037h-.521c-.144,0-.31-.009-.5-.024a4.291,4.291,0,0,1-.559-.082,2.217,2.217,0,0,1-.5-.164.532.532,0,0,1-.3-.294V25.153a.486.486,0,0,0-.119-.328.38.38,0,0,0-.308-.141H20.942a.387.387,0,0,0-.308.141.5.5,0,0,0-.117.328v5.066a.645.645,0,0,1-.18.483,1.082,1.082,0,0,1-.425.255,2.215,2.215,0,0,1-.534.106q-.26.022-.521.024h-.538q-.249,0-.5-.024a4.075,4.075,0,0,1-.557-.082,2.283,2.283,0,0,1-.5-.164.545.545,0,0,1-.3-.293v-6.45a.431.431,0,0,0-.13-.315.44.44,0,0,0-.319-.13H14.922a.431.431,0,0,0-.318.13.42.42,0,0,0-.132.315v6.146a.65.65,0,0,1-.178.483,1.075,1.075,0,0,1-.437.255,2.38,2.38,0,0,1-.548.106c-.187.016-.364.024-.522.024H10.343V19.5a.441.441,0,0,0-.117-.317.4.4,0,0,0-.308-.13h-1.3a.4.4,0,0,0-.308.13.441.441,0,0,0-.118.317V32.846c0,.3,0,.61-.012.939s-.019.711-.035,1.149a2.034,2.034,0,0,1-.632.14c-.372.017-.255.024-.589.024a5.361,5.361,0,0,1-2.475-.457,3.7,3.7,0,0,1-1.624-1.255A4.383,4.383,0,0,1,2.1,31.511a14.959,14.959,0,0,1-.167-2.3c0-.266.015-.589.047-.973s.065-.753.094-1.112c.047-.33-.072-.5-.355-.5H.7c-.239,0-.379.15-.427.448-.05.234-.088.488-.119.763s-.06.544-.083.819-.04.531-.049.774-.012.44-.012.6a11.383,11.383,0,0,0,.356,2.979,5.28,5.28,0,0,0,1.2,2.226,5.3,5.3,0,0,0,2.243,1.4,8.292,8.292,0,0,0,3.068.481,7.188,7.188,0,0,0,1.158-.083,13.258,13.258,0,0,0,1.721-.268,1.07,1.07,0,0,0,.354-.163.481.481,0,0,0,.146-.33q.021-.281.033-.679.026-.851.048-1.7c.008-.29.009-.549.009-.785H12.5a8.253,8.253,0,0,0,1.483-.153A3.157,3.157,0,0,0,15.4,32.33a2.841,2.841,0,0,0,1.389.621,8.9,8.9,0,0,0,1.576.153h.3a8.379,8.379,0,0,0,1.543-.153,2.979,2.979,0,0,0,1.376-.621,2.79,2.79,0,0,0,1.3.621,7.609,7.609,0,0,0,1.493.153h.4a6.183,6.183,0,0,0,1.553-.187,3.014,3.014,0,0,0,1.2-.587,3.262,3.262,0,0,0,1.469.61,10.626,10.626,0,0,0,1.708.14H31.1c.5,0,.984-.018,1.433-.057a5.18,5.18,0,0,0,1.055-.177.817.817,0,0,0,.395-.281,1.2,1.2,0,0,0,.153-.423q.059-.674.083-1.35c.008-.241.012-.479.012-.712V26.115c0-.391,0-.8-.012-1.221s-.02-.9-.035-1.43M32.156,13.448a6.589,6.589,0,0,1-3.2.937c-1.376,0-2.18-.446-2.18-2.133V11.97c0-1.665.759-2.3,3.625-2.3h1.755ZM29.62,2.852a20.707,20.707,0,0,0-3.675.3c-.332.047-.5.188-.5.446v.822c0,.3.214.373.426.373h.12a35.115,35.115,0,0,1,3.626-.188c1.849,0,2.536.68,2.536,2.65V8.2H30.4c-4.22,0-5.713,1.267-5.713,3.8v.284c0,2.927,1.847,3.794,3.866,3.794a7.293,7.293,0,0,0,3.652-1.147v.515a.471.471,0,0,0,.47.47H33.77a.472.472,0,0,0,.472-.47V7.259c0-2.765-1.326-4.405-4.621-4.405Zm-7.462,0a5.7,5.7,0,0,0-3.341,1.125V3.486a.453.453,0,0,0-.453-.47H17.25a.453.453,0,0,0-.451.469V15.439a.47.47,0,0,0,.451.47h1.162a.49.49,0,0,0,.473-.47V5.617a6.158,6.158,0,0,1,3.272-.982c.332,0,.5-.141.5-.4V3.275q0-.422-.5-.423ZM13.558,14.2H11.586c-.947,0-1.278-.187-1.278-1.48V4.751h3.2a.474.474,0,0,0,.475-.468v-.8a.472.472,0,0,0-.475-.47h-3.2V.463a.378.378,0,0,0-.358-.4H9.879L8.646.253a.477.477,0,0,0-.427.468v2.3H6.779a.414.414,0,0,0-.451.422v.633c0,.258.187.4.451.423l1.44.256v8.181c0,2.579,1.045,3.139,3.225,3.139.451,0,1.711-.044,2.186-.116.307-.046.425-.187.425-.4V14.526c0-.236-.165-.328-.5-.328ZM50.087,2.83a9.586,9.586,0,0,0-3.934.961,2.9,2.9,0,0,0-2.37-.961,6.728,6.728,0,0,0-3.462,1.1V3.486a.453.453,0,0,0-.451-.469H38.684a.453.453,0,0,0-.45.469V15.439a.431.431,0,0,0,.4.47h1.257a.45.45,0,0,0,.428-.47V5.548a7.234,7.234,0,0,1,2.891-.914c1.233,0,1.827.423,1.827,2.461v8.342a.431.431,0,0,0,.4.47H46.7a.448.448,0,0,0,.426-.47V7.1a6.93,6.93,0,0,0-.212-1.829,8.306,8.306,0,0,1,2.772-.632c1.232,0,2.159.538,2.159,2.508v8.3a.472.472,0,0,0,.473.47h1.138a.473.473,0,0,0,.475-.47v-8.3C53.928,3.883,52.22,2.83,50.087,2.83ZM72.13,37.743h5.064c3.484,0,10.111.6,10.88-6.39C89.4,19.347,80.467,13.415,87.925.207c-1.31,1.367-12.443,14.1-15.8,37.536Z" transform="translate(-0.008 -0.038)" fill="#aeaeae" fill-rule="evenodd"/>
      <path id="Path_90764" data-name="Path 90764" d="M97.77,37.733c3.55-24.88,15.841-37.7,15.841-37.7h-13.2a8.742,8.742,0,0,0-8.782,8.7v.6h8.143c2.909,0,2.641,1.507,1.883,4.02s-5.7,15.96-6.846,24.379ZM117.86.027S114.645,6,115.223,9.212l4.179.015A8.741,8.741,0,0,0,128.22.522v-.5H117.86Zm47.487,16.182h-1.135a.464.464,0,0,1-.467-.463V7.476c0-1.964-.922-2.5-2.144-2.5a8.252,8.252,0,0,0-2.759.633,6.879,6.879,0,0,1,.21,1.824v8.319a.44.44,0,0,1-.422.463h-1.251a.426.426,0,0,1-.4-.463V7.427c0-2.034-.588-2.457-1.81-2.457a7.125,7.125,0,0,0-2.876.915v9.861a.446.446,0,0,1-.428.464h-1.246a.424.424,0,0,1-.4-.464V3.829a.449.449,0,0,1,.446-.468h1.181a.45.45,0,0,1,.446.468V4.27a6.661,6.661,0,0,1,3.437-1.1,2.889,2.889,0,0,1,2.36.957A9.522,9.522,0,0,1,162,3.173c2.122,0,3.824,1.05,3.824,4.3v8.271a.471.471,0,0,1-.475.464M176.8,8.666C176.8,6.024,175.789,5,173.715,5c-2.03,0-3.159,1.143-3.159,3.669v.211H176.8V8.666Zm1.651,1.774h-7.9v.329c0,2.779,1.108,3.811,3.277,3.811a32.332,32.332,0,0,0,4.195-.261h.122a.328.328,0,0,1,.37.329v.795c0,.3-.09.465-.469.536a21.574,21.574,0,0,1-4.218.4c-2.712,0-5.352-1.263-5.352-5.609v-2.1c0-3.342,1.863-5.467,5.234-5.467,3.444,0,5.185,2.147,5.185,5.467v1.26a.452.452,0,0,1-.446.514Zm8.91,5.821a12.2,12.2,0,0,1-1.537.116c-2.167,0-3.2-.56-3.2-3.132V5.089l-2.287-.258c-.256-.023-.449-.161-.449-.42V3.782a.416.416,0,0,1,.45-.421h2.286V1.072A.481.481,0,0,1,183.05.6l1.223-.185h.074a.371.371,0,0,1,.35.4V3.361h2.542a.472.472,0,0,1,.476.468v.793a.471.471,0,0,1-.476.468H184.7v8.157c0,1.284.332,1.471,1.272,1.471h1.319c.332,0,.5.094.5.329v.818c0,.211-.116.346-.422.4m7.822-11.291a6.076,6.076,0,0,0-3.253.984v9.791a.485.485,0,0,1-.469.465H190.3a.467.467,0,0,1-.448-.464V3.828a.453.453,0,0,1,.448-.468h1.107a.452.452,0,0,1,.45.468v.49A5.665,5.665,0,0,1,195.186,3.2c.334,0,.5.141.5.421v.957c0,.257-.163.4-.5.4M205.2,8.9c0-2.385-.969-3.9-3.182-3.9-2.194,0-3.156,1.494-3.156,3.9v1.777c0,2.383.941,3.905,3.156,3.905,2.191,0,3.182-1.5,3.182-3.905Zm-3.182,7.478c-3.466,0-5.232-2.269-5.232-5.7V8.9c0-3.436,1.765-5.7,5.233-5.7s5.255,2.265,5.255,5.7v1.777c0,3.433-1.792,5.7-5.256,5.7ZM182.3,30.281c0,.358-.224.577-.66.655a9.411,9.411,0,0,1-1.581.118,3.193,3.193,0,0,1-2.4-.75,3.423,3.423,0,0,1-.706-2.407v-.466a3.254,3.254,0,0,1,.907-2.48,3.422,3.422,0,0,1,2.461-.863,17.786,17.786,0,0,1,1.982.1v6.1Zm1.6-7.688a7.682,7.682,0,0,0-1.5-.271q-.911-.082-1.827-.082a5.7,5.7,0,0,0-4.148,1.427,5.149,5.149,0,0,0-1.463,3.881v.582a4.839,4.839,0,0,0,1.274,3.669,4.733,4.733,0,0,0,3.417,1.215c.188,0,.4,0,.658-.011a6.61,6.61,0,0,0,.765-.071,6.036,6.036,0,0,0,.7-.139,1.191,1.191,0,0,0,.486-.223v1.01a2.824,2.824,0,0,1-.291,1.374,2.067,2.067,0,0,1-.825.823,3.791,3.791,0,0,1-1.29.4,12.723,12.723,0,0,1-1.69.105c-.256,0-.584,0-.991-.014s-.75-.01-1.019-.01c-.248,0-.375.11-.375.324V37.6a.376.376,0,0,0,.067.24.565.565,0,0,0,.308.125,3.876,3.876,0,0,0,.427.047c.2.016.428.029.671.035s.486.018.732.024.444.014.6.014a10.939,10.939,0,0,0,2.291-.225,4.713,4.713,0,0,0,1.789-.769,3.646,3.646,0,0,0,1.179-1.485,5.837,5.837,0,0,0,.424-2.384V23.011a.4.4,0,0,0-.071-.268.776.776,0,0,0-.3-.15Zm16.6-4.2h-1.135a.443.443,0,0,0-.444.442v9.906c0,1.675-.381,2.26-2.738,2.26h-.558l-.026-2.994a9.259,9.259,0,0,0-.366-2.31,4.789,4.789,0,0,0-1-1.825,4.437,4.437,0,0,0-1.79-1.19,7.6,7.6,0,0,0-2.689-.423c-.172,0-.443.009-.813.023a10.333,10.333,0,0,0-1.166.12.529.529,0,0,0-.365.139.429.429,0,0,0-.1.3v.959c0,.251.155.36.469.328a7.39,7.39,0,0,1,.836-.059q.372-.01.743-.012a4.394,4.394,0,0,1,3.23,1.006,4.372,4.372,0,0,1,1.038,3.062L193.654,31h-6.437a.5.5,0,0,0-.328.115.375.375,0,0,0-.14.3v1.191a.341.341,0,0,0,.14.292.524.524,0,0,0,.329.107h9c2.38,0,4.737-.5,4.737-4.14V18.839a.444.444,0,0,0-.443-.442Zm-43,11.061a1.009,1.009,0,0,1-.19.623,1.32,1.32,0,0,1-.494.386,2.391,2.391,0,0,1-.687.187,5.681,5.681,0,0,1-.731.046h-.446a2.643,2.643,0,0,1-2.169-.786,3.414,3.414,0,0,1-.634-2.192v-.49a3.691,3.691,0,0,1,.292-1.563,2.541,2.541,0,0,1,.8-.984,3.091,3.091,0,0,1,1.217-.5,7.927,7.927,0,0,1,1.557-.142c.2,0,.422.008.659.026s.507.035.824.067v5.325Zm15.665,1.413-.99-2.5-.234-.6a12.815,12.815,0,0,0-1.459-2.671,6.888,6.888,0,0,0-1.7-1.631,5.828,5.828,0,0,0-1.956-.815,10.389,10.389,0,0,0-2.216-.222c-.282,0-.642.016-1.074.045a8.06,8.06,0,0,0-1.164.161.62.62,0,0,0-.353.152.4.4,0,0,0-.1.29v.946c0,.247.176.352.516.323.128-.017.273-.027.438-.038s.33-.017.5-.032.314-.028.443-.034.235-.016.3-.016a6.129,6.129,0,0,1,3.5.878,5.991,5.991,0,0,1,2.063,2.651l.545,1.24.846,2.011h-9.94a2.312,2.312,0,0,1-1.2-.269c-.3-.179-.449-.58-.449-1.2V22.966a.562.562,0,0,0-.064-.292c-.037-.069-.135-.118-.292-.152a5.353,5.353,0,0,0-.613-.126c-.235-.042-.485-.076-.739-.105s-.523-.054-.79-.071-.5-.023-.709-.023a9.8,9.8,0,0,0-2.464.291,5.3,5.3,0,0,0-1.927.91,4.117,4.117,0,0,0-1.267,1.6,5.665,5.665,0,0,0-.446,2.358v.608a4.7,4.7,0,0,0,1.177,3.457,4.534,4.534,0,0,0,3.37,1.193h.213a7.008,7.008,0,0,0,1.827-.222A2.209,2.209,0,0,0,158,31.659a2.125,2.125,0,0,0,1.1,1.05,4.535,4.535,0,0,0,1.775.3h11.733a.742.742,0,0,0,.543-.152.57.57,0,0,0,.139-.409v-.839a2.539,2.539,0,0,0-.032-.42C173.235,31.088,173.211,30.979,173.177,30.872Zm33.1-12.356a.375.375,0,0,0-.3-.14h-1.157a.4.4,0,0,0-.314.14.428.428,0,0,0-.135.326v13.7a.424.424,0,0,0,.135.327.408.408,0,0,0,.314.141h1.156a.378.378,0,0,0,.3-.141.492.492,0,0,0,.12-.327v-13.7a.5.5,0,0,0-.12-.326ZM157.4,20.581h.917a.581.581,0,0,0,.382-.139.448.448,0,0,0,.16-.35V18.83a.471.471,0,0,0-.16-.375.562.562,0,0,0-.382-.14H157.4a.613.613,0,0,0-.391.14.46.46,0,0,0-.17.375v1.262a.44.44,0,0,0,.17.35.635.635,0,0,0,.391.139Zm-3.866,0h.921a.582.582,0,0,0,.377-.139.437.437,0,0,0,.163-.35V18.83a.487.487,0,0,0-.149-.375.56.56,0,0,0-.391-.14h-.921a.559.559,0,0,0-.391.14.5.5,0,0,0-.15.375v1.262a.478.478,0,0,0,.15.35A.577.577,0,0,0,153.537,20.581ZM265.354.685a1.042,1.042,0,0,0-.638-.274h-8.993a35.106,35.106,0,0,0-11.362,1.831,21.141,21.141,0,0,1,7.777,7.12H255.6v28.71h.783a9.944,9.944,0,0,0,9.208-9.878V1.248a.94.94,0,0,0-.241-.562M241.173,23.965c-2.146,0-2.886-3.159-2.886-5.581a11.576,11.576,0,0,1,2.886-7.848,11.91,11.91,0,0,1,2.808,7.848c0,2.422-.66,5.581-2.808,5.581m8.443-13.657c-.118-.2-.256-.4-.383-.6a21.144,21.144,0,0,0-8.882-6.987A34.717,34.717,0,0,0,227.7.411H217.675a.929.929,0,0,0-.63.235c-.334.313-.3.56-.3.56V28.194A9.94,9.94,0,0,0,226,38.071h.739V9.362h6.511a15.8,15.8,0,0,0-2.667,9.17c0,8,4.739,13.134,10.586,13.134s10.584-5.138,10.584-13.134a16.012,16.012,0,0,0-2.133-8.208c0-.006-.008-.012-.008-.018" transform="translate(-28.034 -0.027)" fill="#aeaeae" fill-rule="evenodd"/>
    </g>
  </g>
</svg>
