<svg id="m-6" xmlns="http://www.w3.org/2000/svg" width="49.15" height="50" viewBox="0 0 49.15 50">
  <path id="Path_76216" data-name="Path 76216" d="M49.15,45a4.958,4.958,0,0,1-4.913,5H4.913A4.956,4.956,0,0,1,0,45V5A4.958,4.958,0,0,1,4.913,0H44.237A4.961,4.961,0,0,1,49.15,5V45Z" fill="#e8308a" fill-rule="evenodd"/>
  <g id="Group_37034" data-name="Group 37034" transform="translate(10.56 4.884)">
    <path id="Path_76217" data-name="Path 76217" d="M34.241,23.463l-7.192,7.265.439.374,7.21-7.236-.458-.4Zm-6.763,8.107a.386.386,0,0,1-.277-.112l-.472-.45a.426.426,0,0,1-.011-.6l7.234-7.254a.435.435,0,0,1,.274-.13.446.446,0,0,1,.331.111l.472.45a.391.391,0,0,1,.115.314.47.47,0,0,1-.122.288l-7.228,7.25a.448.448,0,0,1-.288.133h-.029ZM14.39,38.9c.619,3.8,2.832,7.325,12.821,7.325s12.2-3.528,12.817-7.325Z" transform="translate(-13.17 -8.43)" fill="#fff" fill-rule="evenodd"/>
    <path id="Path_76218" data-name="Path 76218" d="M18.024,10.01a.877.877,0,0,1,.193-.316H34.542a.931.931,0,0,1,.2.317c1.041,2.866,2.415,14,2.463,19.592H15.557c.048-5.6,1.417-16.725,2.466-19.592M13.072,32.565h26.62c.019-.3.034-.589.059-.873.395-4.73-1.235-18.851-2.545-22.44C35.979,5.878,29.519,5.757,26.83,5.757h-.9c-2.687,0-9.149.122-10.376,3.5-1.31,3.588-2.94,17.709-2.542,22.439.022.284.041.574.059.872m5.253,2.443a.492.492,0,0,1-.491-.49v-.245a.5.5,0,0,1,.491-.489h.245a.49.49,0,0,1,.491.489v.246a.488.488,0,0,1-.491.489h-.246Z" transform="translate(-12.952 -5.757)" fill="#fff" fill-rule="evenodd"/>
    <path id="Path_76219" data-name="Path 76219" d="M17.759,40.081a.493.493,0,0,1-.491-.491v-.245a.5.5,0,0,1,.491-.49H18a.489.489,0,0,1,.487.49v.246a.488.488,0,0,1-.487.49h-.246Zm19.533,0a.491.491,0,0,1-.49-.491v-.245a.493.493,0,0,1,.49-.49h.246a.493.493,0,0,1,.49.49v.246a.491.491,0,0,1-.491.49Z" transform="translate(-13.606 -10.812)" fill="#fff" fill-rule="evenodd"/>
    <path id="Path_76220" data-name="Path 76220" d="M35.85,40.081a.492.492,0,0,1-.487-.491v-.245a.494.494,0,0,1,.487-.49H36.1a.488.488,0,0,1,.49.49v.246a.486.486,0,0,1-.491.49h-.246ZM17.046,53.5a1.383,1.383,0,0,1-.684-.176.878.878,0,0,1-.318-1.377l2.441-2.9a1.41,1.41,0,0,1,1.7-.263.883.883,0,0,1,.314,1.38l-2.437,2.9a1.33,1.33,0,0,1-1.014.431m20.758,0a1.321,1.321,0,0,1-1.01-.431l-2.437-2.9a.881.881,0,0,1,.314-1.379,1.409,1.409,0,0,1,1.7.262l2.44,2.9a.878.878,0,0,1-.318,1.377,1.375,1.375,0,0,1-.687.176" transform="translate(-13.388 -10.83)" fill="#fff" fill-rule="evenodd"/>
  </g>
</svg>
