<svg xmlns="http://www.w3.org/2000/svg" width="23.23" height="20.208" viewBox="0 0 23.23 20.208">
  <g id="Group_37814" data-name="Group 37814" transform="translate(-2 -3.602)">
    <path id="Path_90746" data-name="Path 90746" d="M17.355,6.551H6.39c-.325,0-.627.012-.906.023C2.732,6.737,2,7.747,2,10.883v.674a1.165,1.165,0,0,0,1.161,1.161H20.584a1.165,1.165,0,0,0,1.161-1.161v-.674C21.745,7.422,20.863,6.551,17.355,6.551Z" transform="translate(0 0.476)" fill="#e9cc83"/>
    <path id="Path_90747" data-name="Path 90747" d="M3.161,13.359A1.165,1.165,0,0,0,2,14.521V17.9c0,3.461.883,4.332,4.39,4.332H17.355c3.45,0,4.356-.836,4.39-4.147V14.521a1.165,1.165,0,0,0-1.161-1.161Zm4.6,6.04H5.775a.871.871,0,1,1,0-1.742h2A.871.871,0,1,1,7.761,19.4Zm6.493,0h-4a.871.871,0,1,1,0-1.742h4a.871.871,0,0,1,0,1.742Z" transform="translate(0 1.576)" fill="#e9cc83"/>
    <path id="Path_90748" data-name="Path 90748" d="M24.71,14.9V8.817c0-3.635-2.079-5.215-5.215-5.215H9.123A6.584,6.584,0,0,0,6.753,4a3.977,3.977,0,0,0-1.429.871.309.309,0,0,0,.256.523H18.206a4.724,4.724,0,0,1,4.727,4.727v8.328a.306.306,0,0,0,.523.244A5.3,5.3,0,0,0,24.71,14.9Z" transform="translate(0.522)" fill="#e9cc83"/>
  </g>
</svg>
